# xmcd CD database file
#
# Track frame offsets:
#	150
#	14640
#	34283
#	51618
#	65444
#	75823
#	89466
#	101280
#	115629
#	127626
#	137088
#	152610
#	168599
#	182172
#	194417
#	212827
#	226205
#	237950
#	252401
#
# Disc length: 3529 seconds
#
# Revision: 5
# Processed by: cddbd v1.5.2PL0 Copyright (c) Steve Scherf et al.
# Submitted via: CDex 1.51
#
DISCID=fc0dc713
DTITLE=Various Artist - The Best of Traditional British Jazz (1960-1961)
DYEAR=1984
DGENRE=Jazz
TTITLE0=Chris Barber's Jazz Band - St. George's Rag
TTITLE1=Chris Barber's Jazz Band - Lazy River 
TTITLE2=Chris Barber's Jazz Band - Stevedore Stomp
TTITLE3=Chris Barber's Jazz Band - Phil's Late
TTITLE4=Monty Sunshine's Jazz Band - Tuxedo Rag 
TTITLE5=Monty Sunshine's Jazz Band - Creole Love Call 
TTITLE6=Monty Sunshine's Jazz Band1919 Rag
TTITLE7=Nat Gonella And His Jazz Band - Oh Monah (vocal)
TTITLE8=Nat Gonella And His Jazz Band - Wild Man Blues
TTITLE9=Nat Gonella And His Jazz Band - Nagasaki (vocal)
TTITLE10=Alex Welsh And His Jazz Band - Dardanella
TTITLE11=Alex Welsh And His Jazz Band - Montmartre (featuring:Joseph Reinhardt , Guitar)
TTITLE12=Alex Welsh And His Jazz Band - Hindustan
TTITLE13=Mr. Acker Bilk And His Paramount Jazz Band - Creole Jazz
TTITLE14=Mr. Acker Bilk And His Paramount Jazz Band - Perdido Street Blues
TTITLE15=Mr. Acker Bilk And His Paramount Jazz Band - Papa Dip
TTITLE16=Ken Colyer's Jazzmen - South
TTITLE17=Ken Colyer's Jazzmen - Mabel's Dream
TTITLE18=Ken Colyer's Jazzmen - Sweet Sue Just You
EXTD=YEAR: 1984
EXTT0=
EXTT1=
EXTT2=
EXTT3=
EXTT4=
EXTT5=
EXTT6=
EXTT7=
EXTT8=
EXTT9=
EXTT10=
EXTT11=
EXTT12=
EXTT13=
EXTT14=
EXTT15=
EXTT16=
EXTT17=
EXTT18=
PLAYORDER=
